<?xml version="1.0" encoding="utf-8"?>
<!-- Generator: Adobe Illustrator 21.0.0, SVG Export Plug-In . SVG Version: 6.00 Build 0)  -->
<svg version="1.1" id="OBJECTS" xmlns="http://www.w3.org/2000/svg" xmlns:xlink="http://www.w3.org/1999/xlink" x="0px" y="0px"
	 viewBox="0 0 500 500" style="enable-background:new 0 0 500 500;" xml:space="preserve">
<style type="text/css">
	.st0{fill:#E5E9ED;}
	.st1{fill:#FFFFFF;stroke:#BEC8D2;stroke-miterlimit:10;}
	.st2{fill:none;stroke:#BEC8D2;stroke-miterlimit:10;}
	.st3{fill:#BEC8D2;}
	.st4{fill:#174159;}
	.st5{fill:none;stroke:#174159;stroke-linecap:round;stroke-miterlimit:10;}
	.st6{fill:#F2F2F2;}
	.st7{fill:none;stroke:#BEC8D2;stroke-linecap:round;stroke-miterlimit:10;}
	.st8{fill:none;stroke:#BEC8D2;stroke-linecap:round;stroke-linejoin:round;stroke-miterlimit:10;}
	.st9{fill:none;stroke:#174159;stroke-linecap:round;stroke-linejoin:round;stroke-miterlimit:10;}
	.st10{fill:none;stroke:#174159;stroke-width:0.75;stroke-miterlimit:10;}
	.st11{fill:#FAE54E;}
	.st12{fill:#2D80EA;}
	.st13{fill:#E148BE;}
	.st14{fill:#5620D8;}
	.st15{fill:#BBA6EF;}
	.st16{fill:none;stroke:#174159;stroke-miterlimit:10;}
	.st17{opacity:0.2;}
	.st18{fill:none;stroke:#F2F2F2;stroke-width:0.5;stroke-miterlimit:10;}
	.st19{fill:#2E546A;}
	.st20{fill:#428DEC;}
	.st21{fill:none;stroke:#000000;stroke-width:0.5;stroke-miterlimit:10;}
	.st22{fill:#784DE0;}
	.st23{fill:none;stroke:#5620D8;stroke-width:0.5;stroke-miterlimit:10;}
	.st24{fill:#5799EE;}
	.st25{fill:none;stroke:#2D80EA;stroke-width:0.5;stroke-miterlimit:10;}
</style>
<g>
	<ellipse class="st0" cx="250" cy="405.4" rx="190.1" ry="4.2"/>
	<g>
		<g>
			<path class="st1" d="M435.4,404.4c-8.4-17.8-41.7-33.9-21.7-56.3c20-22.4-43.7-47.5-14.5-68.5c32.2-23.2,15.5-56.2,36.2-56.2
				V404.4z"/>
			<path class="st1" d="M435.4,404.4c8.4-17.8,41.7-33.9,21.7-56.3c-20-22.4,43.7-47.5,14.5-68.5c-32.2-23.2-15.5-56.2-36.2-56.2
				V404.4z"/>
		</g>
		<path class="st2" d="M435.4,391.9c0-24.9-28-29.8-28-29.8"/>
		<path class="st2" d="M435.4,337.7c0-27.2-26.7-48-44-46.5"/>
		<path class="st2" d="M435.4,286.1c0-28.1-14.1-42.1-14.1-42.1"/>
		<path class="st2" d="M435.4,391.9c0-24.9,28-29.8,28-29.8"/>
		<path class="st2" d="M435.4,337.7c0-27.2,26.7-48,44-46.5"/>
		<path class="st2" d="M435.4,286.1c0-28.1,14.1-42.1,14.1-42.1"/>
	</g>
	<g>
		<g>
			<path class="st1" d="M64.6,404.4c8.4-17.8,41.7-33.9,21.7-56.3c-20-22.4,43.7-47.5,14.5-68.5c-32.2-23.2-15.5-56.2-36.2-56.2
				V404.4z"/>
			<path class="st1" d="M64.6,404.4c-8.4-17.8-41.7-33.9-21.7-56.3c20-22.4-43.7-47.5-14.5-68.5c32.2-23.2,15.5-56.2,36.2-56.2
				V404.4z"/>
		</g>
		<path class="st2" d="M64.6,391.9c0-24.9,28-29.8,28-29.8"/>
		<path class="st2" d="M64.6,337.7c0-27.2,26.7-48,44-46.5"/>
		<path class="st2" d="M64.6,286.1c0-28.1,14.1-42.1,14.1-42.1"/>
		<path class="st2" d="M64.6,391.9c0-24.9-28-29.8-28-29.8"/>
		<path class="st2" d="M64.6,337.7c0-27.2-26.7-48-44-46.5"/>
		<path class="st2" d="M64.6,286.1c0-28.1-14.1-42.1-14.1-42.1"/>
	</g>
	<path class="st1" d="M128.7,171.4c0-1.9-0.2-3.7-0.5-5.5c-0.2-1.1,0.3-2.2,1.3-2.8l4.3-2.5c1.3-0.7,1.7-2.4,1-3.6l-6-10.5
		c-0.7-1.3-2.4-1.7-3.6-1l-4.3,2.5c-1,0.6-2.2,0.5-3-0.3c-2.8-2.4-6-4.2-9.5-5.5c-1-0.4-1.7-1.4-1.7-2.5v-5c0-1.5-1.2-2.7-2.7-2.7
		H91.7c-1.5,0-2.7,1.2-2.7,2.7v5c0,1.1-0.7,2.1-1.7,2.5c-3.5,1.3-6.7,3.1-9.5,5.5c-0.9,0.7-2.1,0.8-3,0.3l-4.3-2.5
		c-1.3-0.7-2.9-0.3-3.6,1l-6,10.5c-0.7,1.3-0.3,2.9,1,3.6l4.3,2.5c1,0.6,1.5,1.7,1.3,2.8c-0.3,1.8-0.5,3.6-0.5,5.5
		c0,1.9,0.2,3.7,0.5,5.5c0.2,1.1-0.3,2.2-1.3,2.8l-4.3,2.5c-1.3,0.7-1.7,2.4-1,3.6l6,10.5c0.7,1.3,2.4,1.7,3.6,1l4.3-2.5
		c1-0.6,2.2-0.5,3,0.3c2.8,2.4,6,4.2,9.5,5.5c1,0.4,1.7,1.4,1.7,2.5v5c0,1.5,1.2,2.7,2.7,2.7h12.1c1.5,0,2.7-1.2,2.7-2.7v-5
		c0-1.1,0.7-2.1,1.7-2.5c3.5-1.3,6.7-3.1,9.5-5.5c0.9-0.7,2.1-0.8,3-0.3l4.3,2.5c1.3,0.7,2.9,0.3,3.6-1l6-10.5
		c0.7-1.3,0.3-2.9-1-3.6l-4.3-2.5c-1-0.6-1.5-1.7-1.3-2.8C128.5,175.1,128.7,173.3,128.7,171.4z M99.9,188
		c-10.9,1.4-20.1-7.8-18.7-18.7c0.9-7.4,6.9-13.4,14.3-14.3c10.9-1.4,20.1,7.8,18.7,18.7C113.4,181,107.4,187,99.9,188z"/>
	<path class="st1" d="M172.5,116.3c1.1-1.9,2.1-3.9,2.8-5.9c0.5-1.2,1.7-2.1,3-2l5.9,0.1c1.8,0,3.2-1.4,3.2-3.1l0.2-14.4
		c0-1.8-1.4-3.2-3.1-3.2l-5.9-0.1c-1.3,0-2.5-0.9-2.9-2.1c-1.4-4.1-3.6-8-6.4-11.4c-0.8-1-0.9-2.5-0.3-3.6l3-5.1
		c0.9-1.5,0.4-3.5-1.1-4.4l-12.4-7.4c-1.5-0.9-3.5-0.4-4.4,1.1l-3,5.1c-0.7,1.1-2,1.7-3.3,1.5c-4.4-0.8-8.8-0.9-13.1-0.2
		c-1.3,0.2-2.6-0.4-3.3-1.6l-2.9-5.2c-0.9-1.5-2.8-2.1-4.3-1.2l-12.6,7c-1.5,0.9-2.1,2.8-1.2,4.3l2.9,5.2c0.6,1.2,0.5,2.6-0.4,3.6
		c-1.4,1.6-2.7,3.4-3.9,5.3c-1.1,1.9-2.1,3.9-2.8,5.9c-0.5,1.2-1.7,2.1-3,2l-5.9-0.1c-1.8,0-3.2,1.4-3.2,3.1L93.9,104
		c0,1.8,1.4,3.2,3.1,3.2l5.9,0.1c1.3,0,2.5,0.9,2.9,2.1c1.4,4.1,3.6,8,6.4,11.4c0.8,1,0.9,2.5,0.3,3.6l-3,5.1
		c-0.9,1.5-0.4,3.5,1.1,4.4l12.4,7.4c1.5,0.9,3.5,0.4,4.4-1.1l3-5.1c0.7-1.1,2-1.7,3.3-1.5c4.4,0.8,8.8,0.9,13.1,0.2
		c1.3-0.2,2.6,0.4,3.3,1.6l2.9,5.2c0.9,1.5,2.8,2.1,4.3,1.2l12.6-7c1.5-0.9,2.1-2.8,1.2-4.3l-2.9-5.2c-0.6-1.2-0.5-2.6,0.4-3.6
		C170,120,171.3,118.2,172.5,116.3z M132.9,115.7c-12-5.2-15.8-20.2-7.7-30.6c5.5-7,15.3-9.5,23.5-6c12,5.2,15.8,20.2,7.7,30.6
		C150.9,116.8,141.1,119.3,132.9,115.7z"/>
	<path class="st1" d="M444.5,145.7c0-2.6-0.2-5.1-0.7-7.5c-0.3-1.5,0.4-3,1.8-3.8l5.9-3.4c1.7-1,2.3-3.2,1.3-5l-8.3-14.3
		c-1-1.7-3.2-2.3-5-1.3l-5.9,3.4c-1.3,0.8-3,0.6-4.1-0.4c-3.8-3.2-8.2-5.8-13-7.5c-1.4-0.5-2.4-1.9-2.4-3.4v-6.8
		c0-2-1.6-3.6-3.6-3.6H394c-2,0-3.6,1.6-3.6,3.6v6.8c0,1.5-0.9,2.9-2.4,3.4c-4.8,1.7-9.2,4.3-13,7.5c-1.2,1-2.8,1.1-4.1,0.4
		l-5.9-3.4c-1.7-1-4-0.4-5,1.3l-8.3,14.3c-1,1.7-0.4,4,1.3,5l5.9,3.4c1.3,0.8,2,2.3,1.8,3.8c-0.4,2.4-0.7,4.9-0.7,7.5
		c0,2.6,0.2,5.1,0.7,7.5c0.3,1.5-0.4,3-1.8,3.8l-5.9,3.4c-1.7,1-2.3,3.2-1.3,5l8.3,14.3c1,1.7,3.2,2.3,5,1.3l5.9-3.4
		c1.3-0.8,3-0.6,4.1,0.4c3.8,3.2,8.2,5.8,13,7.5c1.4,0.5,2.4,1.9,2.4,3.4v6.8c0,2,1.6,3.6,3.6,3.6h16.5c2,0,3.6-1.6,3.6-3.6v-6.8
		c0-1.5,0.9-2.9,2.4-3.4c4.8-1.7,9.2-4.3,13-7.5c1.2-1,2.8-1.1,4.1-0.4l5.9,3.4c1.7,1,4,0.4,5-1.3l8.3-14.3c1-1.7,0.4-4-1.3-5
		l-5.9-3.4c-1.3-0.8-2-2.3-1.8-3.8C444.2,150.7,444.5,148.2,444.5,145.7z M405.2,168.2c-14.9,1.9-27.4-10.6-25.5-25.5
		c1.3-10.1,9.5-18.3,19.6-19.6c14.9-1.9,27.4,10.6,25.5,25.5C423.5,158.8,415.3,167,405.2,168.2z"/>
	<g>
		<rect x="97.8" y="171.4" class="st0" width="304.5" height="195.2"/>
		<g>
			<rect x="97.8" y="179.2" class="st3" width="304.5" height="17.1"/>
			<g>
				<g>
					<path class="st4" d="M115.9,185.8l1.7,1.8v2.4h-3.4v-2.4L115.9,185.8 M115.9,184.6c-0.1,0-0.3,0.1-0.4,0.2l-2.1,2.2
						c-0.1,0.1-0.2,0.4-0.2,0.6v2.7c0,0.4,0.3,0.8,0.6,0.8h4.1c0.4,0,0.6-0.3,0.6-0.8v-2.7c0-0.2-0.1-0.4-0.2-0.6l-2.1-2.2
						C116.2,184.6,116,184.6,115.9,184.6L115.9,184.6z"/>
				</g>
				<g>
					<path class="st5" d="M123.9,189.6l2.4-1.5c0.3-0.2,0.3-0.4,0-0.6l-2.4-1.5"/>
					<path class="st5" d="M107.8,189.6l-2.4-1.5c-0.3-0.2-0.3-0.4,0-0.6l2.4-1.5"/>
				</g>
			</g>
			<g>
				<g>
					<path class="st6" d="M367,193.1H136.7c-1.4,0-2.6-1.2-2.6-2.6v-5.4c0-1.4,1.2-2.6,2.6-2.6H367c1.4,0,2.6,1.2,2.6,2.6v5.4
						C369.6,191.9,368.4,193.1,367,193.1z"/>
				</g>
				<rect x="213.1" y="186.2" class="st3" width="77.6" height="3.2"/>
				<g>
					
						<ellipse transform="matrix(0.7071 -0.7071 0.7071 0.7071 -91.5507 154.5642)" class="st2" cx="140.8" cy="187.8" rx="2.3" ry="2.3"/>
					<line class="st7" x1="142.4" y1="189.4" x2="143.8" y2="190.8"/>
				</g>
				<g>
					<path class="st7" d="M366.1,187.8c0,1.3-1,2.3-2.3,2.3s-2.3-1-2.3-2.3c0-1.3,1-2.3,2.3-2.3"/>
					<polygon class="st8" points="363.8,184.9 365,185.7 363.8,186.5 					"/>
				</g>
			</g>
			<polygon class="st9" points="379.4,184.6 380.2,187 382.8,187 380.7,188.6 381.5,191 379.4,189.5 377.3,191 378.1,188.6 376,187 
				378.6,187 			"/>
			<g>
				<line class="st9" x1="388.2" y1="185.1" x2="396.7" y2="185.1"/>
				<line class="st9" x1="388.2" y1="187.8" x2="396.7" y2="187.8"/>
				<line class="st9" x1="388.2" y1="190.5" x2="396.7" y2="190.5"/>
			</g>
		</g>
		<polyline class="st10" points="402.2,171.4 402.2,366.6 97.8,366.6 		"/>
		<g>
			<rect x="97.8" y="171.4" class="st4" width="304.5" height="7.8"/>
			<g>
				<circle class="st11" cx="103.9" cy="175.3" r="1.8"/>
				<circle class="st12" cx="108.9" cy="175.3" r="1.8"/>
				<circle class="st13" cx="113.9" cy="175.3" r="1.8"/>
			</g>
		</g>
	</g>
	<g>
		<rect x="273.5" y="343.1" class="st14" width="105.3" height="11.9"/>
		<g>
			<g>
				<circle class="st14" cx="134.8" cy="218.5" r="13.9"/>
				<g>
					<rect x="155.6" y="212.7" class="st15" width="54.2" height="4.7"/>
					<rect x="155.6" y="219.6" class="st15" width="39.9" height="4.7"/>
				</g>
			</g>
			<g>
				<rect x="284" y="212.7" class="st3" width="27.1" height="4.7"/>
				<rect x="317.8" y="212.7" class="st3" width="27.1" height="4.7"/>
			</g>
			<line class="st16" x1="121.5" y1="237.6" x2="378.5" y2="237.6"/>
		</g>
		<g>
			<rect x="121.5" y="297.2" class="st15" width="88.4" height="7.1"/>
			<g>
				<rect x="121.5" y="311.2" class="st3" width="123" height="3.1"/>
				<rect x="121.5" y="317.2" class="st3" width="112.2" height="3.1"/>
				<rect x="121.5" y="323.3" class="st3" width="103.1" height="3.1"/>
				<rect x="121.5" y="329.4" class="st3" width="123" height="3.1"/>
			</g>
		</g>
		<g>
			<g>
				<g class="st17">
					<path d="M159.1,356h-30.7c-3.3,0-5.9-2.7-5.9-5.9v0c0-3.3,2.7-5.9,5.9-5.9h30.7c3.3,0,5.9,2.7,5.9,5.9v0
						C165,353.4,162.4,356,159.1,356z"/>
				</g>
				<g>
					<path class="st11" d="M158.1,355h-30.7c-3.3,0-5.9-2.7-5.9-5.9v0c0-3.3,2.7-5.9,5.9-5.9h30.7c3.3,0,5.9,2.7,5.9,5.9v0
						C164,352.4,161.4,355,158.1,355z"/>
				</g>
			</g>
			<g>
				<g class="st17">
					<path d="M208.1,356h-30.7c-3.3,0-5.9-2.7-5.9-5.9v0c0-3.3,2.7-5.9,5.9-5.9h30.7c3.3,0,5.9,2.7,5.9,5.9v0
						C214.1,353.4,211.4,356,208.1,356z"/>
				</g>
				<g>
					<path class="st4" d="M207.1,355h-30.7c-3.3,0-5.9-2.7-5.9-5.9v0c0-3.3,2.7-5.9,5.9-5.9h30.7c3.3,0,5.9,2.7,5.9,5.9v0
						C213.1,352.4,210.4,355,207.1,355z"/>
				</g>
			</g>
		</g>
		<g>
			<g>
				<rect x="121.5" y="249.4" class="st14" width="18" height="18"/>
				<line class="st18" x1="121.5" y1="249.4" x2="139.4" y2="267.3"/>
				<line class="st18" x1="139.4" y1="249.4" x2="121.5" y2="267.3"/>
			</g>
			<g>
				<rect x="146.6" y="249.4" class="st14" width="18" height="18"/>
				<line class="st18" x1="146.6" y1="249.4" x2="164.6" y2="267.3"/>
				<line class="st18" x1="164.6" y1="249.4" x2="146.6" y2="267.3"/>
			</g>
			<g>
				<rect x="171.8" y="249.4" class="st14" width="18" height="18"/>
				<line class="st18" x1="171.8" y1="249.4" x2="189.7" y2="267.3"/>
				<line class="st18" x1="189.7" y1="249.4" x2="171.8" y2="267.3"/>
			</g>
		</g>
	</g>
	<g>
		<g class="st17">
			
				<rect x="165" y="234.9" transform="matrix(1.592011e-02 -0.9999 0.9999 1.592011e-02 -111.3221 449.9864)" width="15.8" height="93.4"/>
		</g>
		<g>
			
				<rect x="163" y="233.9" transform="matrix(1.592011e-02 -0.9999 0.9999 1.592011e-02 -112.2904 447.0026)" class="st14" width="15.8" height="93.4"/>
		</g>
	</g>
	<g>
		<line class="st7" x1="317.5" y1="64.1" x2="317.5" y2="142.3"/>
		<path class="st3" d="M322.2,159.6c-0.7,0-1.3,0.6-1.3,1.3c0.1,1.6-1.2,3.2-2.9,3.5c-0.4,0.1-0.8,0.1-1.3,0
			c-0.4-0.1-0.8-0.2-1.1-0.4c-0.7-0.4-1.3-1.1-1.6-1.9c-0.3-0.8-0.3-1.7,0-2.5c1.9-3.7,5.5-6.1,5.5-9.8c2.7-0.9,4.6-3.5,4.6-6.4
			c0-3.8-3.1-6.8-6.8-6.8c-3.8,0-6.8,3.1-6.8,6.8c0,2.9,1.8,5.4,4.3,6.3c-0.2,2.6-3.3,5-4.6,8.5c-0.6,1.7-0.5,3.5,0.2,5.1
			c0.6,1.6,1.8,2.9,3.3,3.6c1.5,0.8,3.1,0.9,4.7,0.6c1.5-0.4,2.9-1.2,3.8-2.5c0.9-1.2,1.3-2.7,1.2-4.1l0-0.1
			C323.5,160.1,322.9,159.6,322.2,159.6z M317.5,140.5c1.6,0,2.8,1.3,2.8,2.8c0,1-0.5,1.8-1.2,2.3c-0.5-0.4-1.1-0.7-1.8-0.6
			c-0.5,0.1-1,0.3-1.4,0.6c-0.7-0.5-1.2-1.3-1.2-2.3C314.6,141.8,315.9,140.5,317.5,140.5z"/>
	</g>
	
		<rect x="230" y="220.2" transform="matrix(0.9907 -0.1362 0.1362 0.9907 -34.0235 45.7106)" class="st15" width="174.3" height="102.8"/>
	<polygon class="st14" points="358.5,250.3 314.5,308.3 276.5,279.5 237.3,331.1 237.8,334.4 410.5,310.6 407.3,287.4 	"/>
	<g>
		<path class="st14" d="M393.1,213.3l12.9,94l-164.8,22.6l-12.9-94L393.1,213.3 M396.5,208.8l-172.7,23.7l14,101.9l172.7-23.7
			L396.5,208.8L396.5,208.8z"/>
	</g>
	<g>
		
			<ellipse transform="matrix(0.9907 -0.1362 0.1362 0.9907 -31.4968 44.1246)" class="st6" cx="306.8" cy="252.3" rx="14.5" ry="14.5"/>
	</g>
	<polyline class="st8" points="235,231 227.2,257.4 236.8,230.7 	"/>
	<polyline class="st8" points="379.7,210.7 400.1,235.2 378,210.4 	"/>
	<path class="st8" d="M378,210.4l-57.7-44.7c-1.4-1.9-4.2-2-5.7-0.1l-77.8,65.1"/>
	<g>
		<circle class="st7" cx="308.9" cy="64.1" r="8.5"/>
		<circle class="st7" cx="308.9" cy="64.1" r="3.1"/>
	</g>
	<g>
		<g>
			<path class="st4" d="M373.2,329.2c-3.3,14.9-2,34,5.2,45.1c5.7,8.8,15.8,11.5,24.9,18.5l-0.4,4.4l4-4.8c0,0-5-5-19.6-20
				c-3.6-3.7-1-18.2-0.1-21.9c4.5-6,0-12.3-3-21.3H373.2z"/>
			<path class="st12" d="M403.3,392.8l-0.4,4.4l4-4.8l-1.7-1.7C405.2,390.7,405.4,392.5,403.3,392.8z"/>
		</g>
		<g>
			<path class="st19" d="M369,329.2c-9.5,18.8-9.2,30.9,4.7,74.9l-4.4,2.7h6.7c0,0-0.3-46.5,2.4-57.1c4.5-6,4.6-11.6,1.6-20.5H369z"
				/>
			<path class="st12" d="M369.3,406.8h6.7v-2.7c0,0-1.4,0.9-2.3,0L369.3,406.8z"/>
		</g>
		<path class="st6" d="M379.4,285.8c-1.7,5.1-6.4,7.6-8.9,7.2c-2.5-0.5-3.7-4.7-2.9-9.4c0.9-4.7,3.6-7.4,6.1-7.7
			C377.3,275.4,381.7,278.6,379.4,285.8z"/>
		<rect x="373.7" y="287.2" class="st6" width="4.6" height="11.6"/>
		<path class="st12" d="M374.6,296.1c-6.1,1.1-10.2,11.1-10.8,14.7c-0.4,2.1-0.1,4.2,2.2,8.3c3.3,5.7,3,10.1,3,10.1h15.2
			c0-4.6,2.9-9.7,4.7-16.8C390.6,305.3,384.9,294.2,374.6,296.1z"/>
		<g>
			<path class="st20" d="M379.8,296.3c0,0,8.8,1.1,12.5-0.2c8.6-3.1,12.3-10.4,12.6-18h2.3c0,0,3.1,22.4-18.1,30.5L379.8,296.3z"/>
			<path class="st6" d="M404.9,278c-1.5-1.7-0.6-3.1-1.2-4.5c-0.6-1.3,0.1-2.9,1.8,0.8l-0.7-5.1c0,0,2,1,2.4,8.8H404.9z"/>
		</g>
		<g>
			<path class="st20" d="M374.2,297.3c4.6,0.9,4,9.1-1.2,13.9c-4.9,4.5-18.8,8.4-37.4,10.9l-0.6-2c0,0,10.4-1.9,19.5-7.4
				C363.5,307,367.6,296,374.2,297.3z"/>
			<path class="st6" d="M335,320c-2-0.9-3.1,0.3-4.5,0.1c-1.4-0.2-2.1,0.8,1.8,1.3l-5.3,0.8c0,0,1.3,1.5,8.6-0.1L335,320z"/>
		</g>
		<path class="st11" d="M368.3,276.5c-2.3,4.1,5.3,3.1,5.3,7.1s-8.4,4.8-10,10c-1.8,6,10.4,4.4,8.6,10.6
			c-2.7,9.1-20.6,9.9-13.8,19.6c5,7,17.1,3,15.7,14.5c-1.3,11.2,19.1,8.9,20.8-0.2c1.2-6.1-10.2-9.8-3.8-14.4
			c7.8-5.6,17.7-13.2,9.2-19.6c-4.3-3.2-15.8-5.2-17-10.4c-1.2-5.2,5.6-13.1-2.5-18.4C372.7,269.8,368.3,276.5,368.3,276.5z"/>
	</g>
	<g>
		<g>
			<path class="st4" d="M163.7,155.2c0,0,4,16.2,12.5,16.2c19.4,0,25-7.4,32.7-6.9c4.1,0.3,14.4,6.9,14.4,6.9h5.8l-4.1-2.5
				c0,0-11.2-14.6-18.7-15.5c-9.5-1.1-22,8.3-28.8,1.9H163.7z"/>
			<path class="st12" d="M223.3,171.4l-1.3-0.8c0,0,2.3,0.1,3-1.7l4.1,2.5H223.3z"/>
		</g>
		<polyline class="st7" points="304.5,56.9 214.4,113.7 201.5,126 201.5,168.9 		"/>
		<g>
			<path class="st3" d="M199.2,127.7c0.8-1.4,2.7-4,3.6-2.3c0.6,1.1,0.3,3.1-0.2,3.3c-0.5,0.2-1.9,0.3-1.9,0.3L199.2,127.7z"/>
			<path class="st12" d="M161.3,125.1c7.4-4.2,19.3,9.2,23,9.9c5.9,1.1,14.2-6.6,15-7.2l1.5,1.4c0,0-9.1,13.1-17.8,13.4
				S151.9,130.4,161.3,125.1z"/>
			<path class="st6" d="M199.2,127.7c0.3-1.4,0.8-1.9,1.8-2.4c1.4-0.8,1.1-1.5,1.6-1.5c0.5,0,1,1.4-0.2,1.8c0,0,0.1,2.4-2,3
				L199.2,127.7z"/>
			<path class="st6" d="M202.8,125.5c0.1,0.5-0.5,0.4-1.1,0.4c-0.7,0-1.5-0.1-1.4,0.8c0.2,1.5,0,2.4,0.7,2.4c0.7,0,1.2,0.2,1.7-0.1
				C203.3,128.8,203.5,126.6,202.8,125.5z"/>
		</g>
		<g>
			<g>
				<path class="st19" d="M178.4,151c9.5,18.8,16.9,38.1,34.6,54.8l5-1.4l-4.5,5c0,0-36.9-21.6-46.9-34.8c-4.5-6-5.7-10.4-2.7-19.3
					L178.4,151z"/>
			</g>
			<path class="st12" d="M213.4,209.3l4.5-5l-5,1.4c0,0,0.3,1.7-1.6,2.3L213.4,209.3z"/>
		</g>
		<path class="st6" d="M157.3,115.8c2.7,4.1,7.5,5.1,9.6,4.1s2.1-5,0.2-9c-1.9-3.9-5-5.6-7.2-5.3
			C156.5,106.2,153.5,110.1,157.3,115.8z"/>
		<polygon class="st6" points="159,127.7 165.5,125.9 162.6,115.7 155.6,111.6 		"/>
		<path class="st20" d="M163.9,123.7c-6.9,0.9-12.9,2.8-9.9,26c2.8,21.8,9.9,21.7,9.9,21.7s21.8,1.5,26.2-14.9
			c0,0-9.4-6.5-12.3-18.3C174.9,126.4,169.3,123,163.9,123.7z"/>
		<g>
			<path class="st20" d="M163.9,123.7l47.8-10l1.1,2.6c0,0-33,21.4-44.5,22.1S155.6,126.2,163.9,123.7z"/>
			<path class="st6" d="M211.8,113.7c0,0,2-2.7,3.1-2.5c1.1,0.2,2.7,2.8,2,3.8c-0.6,1-4,1.3-4,1.3L211.8,113.7z"/>
		</g>
		<path class="st4" d="M157.9,122.6c0,0,3.6-1.3,3.4-5.4c0,0-1.7,0.9-2.2-2.8c-0.2-1.7,1.4-2,2.2-0.2c1.1,0.4,2.5-0.3,2.3-2.3
			c-0.4-3.1,3.6-2.6,3.7-6.3c0.2-4.8-9.4-11.1-11.2-6.7c-1.5,3.6-1,5.7-5.6,5.8C142.1,104.8,150.7,124.3,157.9,122.6z"/>
	</g>
	<g>
		<g>
			<g>
				<path class="st4" d="M130.1,329.2c3.3,14.9,2,34-5.2,45.1c-5.7,8.8-15.8,11.5-24.9,18.5l0.4,4.4l-4-4.8c0,0,5-5,19.6-20
					c3.6-3.7,1-18.2,0.1-21.9c-4.5-6,0-12.3,3-21.3H130.1z"/>
				<path class="st12" d="M100,392.8l0.4,4.4l-4-4.8l1.7-1.7C98.1,390.7,97.9,392.5,100,392.8z"/>
			</g>
			<g>
				<path class="st19" d="M134.3,329.2c9.5,18.8,9.2,30.9-4.7,74.9l4.4,2.7h-6.7c0,0,0.3-46.5-2.4-57.1c-4.5-6-4.6-11.6-1.6-20.5
					H134.3z"/>
				<path class="st12" d="M134,406.8h-6.7v-2.7c0,0,1.4,0.9,2.3,0L134,406.8z"/>
			</g>
			<path class="st6" d="M123.9,285.8c1.7,5.1,6.4,7.6,8.9,7.2s3.7-4.7,2.9-9.4c-0.9-4.7-3.6-7.4-6.1-7.7
				C126,275.4,121.6,278.6,123.9,285.8z"/>
			
				<rect x="121.5" y="287.2" transform="matrix(-1 -1.224647e-16 1.224647e-16 -1 251.0809 586.022)" class="st6" width="8.1" height="11.6"/>
			<g>
				<path class="st20" d="M123.5,296.3c0,0-8.8,1.1-12.5-0.2c-8.6-3.1-12.3-10.4-12.6-18h-2.3c0,0-3.1,22.4,18.1,30.5L123.5,296.3z"
					/>
				<path class="st6" d="M98.4,278c1.5-1.7,0.6-3.1,1.2-4.5c0.6-1.3-0.1-2.9-1.8,0.8l0-5.1c0,0-1.3,1-1.7,8.8H98.4z"/>
			</g>
		</g>
		<path class="st20" d="M133,297.9c-5.7-2.8-8-1.6-17.5-1.2c-9.4,0.4-1.4,23.2-1.4,48.8c0,0,8.2,4.8,28.6,0
			C142.8,345.5,142,302.4,133,297.9z"/>
		<path class="st13" d="M129,289c1.4,2.5-6.7,4.6-8.8,2.1c-2.1-2.5-9.4-4.4-4.1-14.1c2.3-4.2,3.2-10.4,6.6-11
			c8.2-1.4,12.2,4.9,12,8.6c-0.3,5.1-2.3,8.2-4.3,9.3C129,284.6,126.8,285.1,129,289z"/>
		<g>
			<path class="st20" d="M128.3,296.3c9.8,0,17.1,5.3,24.2,6c8.3,0.8,16.6-4.9,18.3-9.3l3.7-0.6c0,0-5.7,12-21.7,17.2
				c-8,2.6-17.9,3-23.8,0.3C123.1,307.2,121.5,296.4,128.3,296.3z"/>
			<path class="st6" d="M170.8,293c-1.2-1.8,0.6-3.6,0.9-4.9c0.2-1.3,0.9-2.3,1.6-2.4c1.1-0.2,0.8,1.3,0.4,2.8
				c0,0.2,0.1,0.3,0.3,0.2c0.9-0.4,3.1-1.3,4.8-1.1c0.6,0.1,0.9,0.7-1.4,1.9c-2.3,1.2-2.8,2.9-2.8,2.9L170.8,293z"/>
		</g>
	</g>
	<g>
		<g class="st17">
			<rect x="170.9" y="362.4" width="111.3" height="29.6"/>
			<rect x="178.4" y="368.2" width="18" height="18"/>
			<line class="st21" x1="178.4" y1="368.2" x2="196.3" y2="386.2"/>
			<line class="st21" x1="196.3" y1="368.2" x2="178.4" y2="386.2"/>
			<rect x="202.6" y="372.2" width="67" height="2.1"/>
			<rect x="202.6" y="380.1" width="67" height="2.1"/>
			<rect x="202.6" y="376.2" width="59.8" height="2.1"/>
		</g>
		<g>
			<g>
				<rect x="169.9" y="361.4" class="st14" width="111.3" height="29.6"/>
				<g>
					<g>
						<rect x="177.4" y="367.2" class="st22" width="18" height="18"/>
						<line class="st23" x1="177.4" y1="367.2" x2="195.3" y2="385.2"/>
						<line class="st23" x1="195.3" y1="367.2" x2="177.4" y2="385.2"/>
					</g>
					<rect x="201.6" y="371.2" class="st24" width="67" height="2.1"/>
					<rect x="201.6" y="379.1" class="st24" width="67" height="2.1"/>
					<rect x="201.6" y="375.2" class="st24" width="59.8" height="2.1"/>
				</g>
			</g>
		</g>
	</g>
	<g>
		<g class="st17">
			<rect x="152.2" y="375.2" width="111.3" height="29.6"/>
			<rect x="159.7" y="381" width="18" height="18"/>
			<line class="st21" x1="159.7" y1="381" x2="177.6" y2="399"/>
			<line class="st21" x1="177.6" y1="381" x2="159.7" y2="399"/>
			<rect x="183.9" y="385" width="67" height="2.1"/>
			<rect x="183.9" y="392.9" width="67" height="2.1"/>
			<rect x="183.9" y="388.9" width="59.8" height="2.1"/>
		</g>
		<g>
			<g>
				<rect x="151.2" y="374.2" class="st12" width="111.3" height="29.6"/>
				<g>
					<g>
						<rect x="158.7" y="380" class="st14" width="18" height="18"/>
						<line class="st25" x1="158.7" y1="380" x2="176.6" y2="398"/>
						<line class="st25" x1="176.6" y1="380" x2="158.7" y2="398"/>
					</g>
					<rect x="182.9" y="384" class="st24" width="67" height="2.1"/>
					<rect x="182.9" y="391.9" class="st24" width="67" height="2.1"/>
					<rect x="182.9" y="387.9" class="st24" width="59.8" height="2.1"/>
				</g>
			</g>
		</g>
	</g>
	<circle class="st1" cx="253.6" cy="154.1" r="2.9"/>
	<circle class="st1" cx="243.1" cy="134.9" r="5.7"/>
	<circle class="st1" cx="271.9" cy="139.9" r="3.3"/>
	<circle class="st1" cx="59.2" cy="120.6" r="4.6"/>
	<circle class="st1" cx="70.6" cy="106.2" r="4"/>
	<circle class="st1" cx="431.9" cy="199.9" r="3.5"/>
	<circle class="st1" cx="456.9" cy="195.7" r="7.6"/>
</g>
</svg>
